<?xml version="1.0" ?><svg id="Layer_1" style="enable-background:new 0 0 500 500;" version="1.1" viewBox="0 0 500 500" xml:space="preserve" xmlns="http://www.w3.org/2000/svg" xmlns:xlink="http://www.w3.org/1999/xlink"><style type="text/css">
	.st0{fill:#3E466E;}
	.st1{fill:#C9CFE5;}
	.st2{fill:none;stroke:#3E466E;stroke-miterlimit:10;}
	.st3{fill:#3E466E;stroke:#3E466E;stroke-width:0.5;stroke-miterlimit:10;}
	.st4{fill:none;stroke:#3E466E;stroke-width:0.5;stroke-miterlimit:10;}
</style><g><g><g><path class="st0" d="M254.48,181.18c-0.58-0.36-1.2-0.65-1.86-0.86v7.11l-2.59,1.62l-2.59-1.62v-7.13     c-0.66,0.21-1.28,0.49-1.86,0.84c-2.47,1.5-4.13,4.21-4.13,7.32c0,3.99,2.73,7.34,6.42,8.28c0.68,0.17,1.39,0.27,2.12,0.27     c0.73,0,1.45-0.09,2.13-0.27c3.69-0.94,6.42-4.29,6.42-8.28C258.55,185.38,256.92,182.68,254.48,181.18z M250,194.97     c-3.6,0-6.52-2.92-6.52-6.52c0-1.89,0.81-3.6,2.1-4.79v4.79l4.45,2.8l4.45-2.8v-4.73c1.26,1.19,2.04,2.87,2.04,4.73     C256.52,192.06,253.6,194.97,250,194.97z"/><path class="st1" d="M255.22,215.34c0,2.88-2.34,5.22-5.22,5.22c-2.88,0-5.22-2.34-5.22-5.22c0-2.13,1.27-3.96,3.1-4.77v-13.83     c0.68,0.17,1.39,0.27,2.12,0.27c0.73,0,1.45-0.09,2.13-0.27v13.83C253.95,211.39,255.22,213.22,255.22,215.34z"/></g><g><path class="st0" d="M204.5,198.17c-0.66,0.16-1.31,0.39-1.92,0.71l5.03,5.03l-0.68,2.98l-2.98,0.68l-5.04-5.04     c-0.32,0.61-0.56,1.25-0.72,1.91c-0.69,2.81,0.06,5.9,2.26,8.09c2.82,2.82,7.12,3.26,10.4,1.31c0.6-0.36,1.17-0.8,1.69-1.31     c0.52-0.52,0.96-1.09,1.31-1.69c1.94-3.28,1.51-7.58-1.31-10.4C210.35,198.26,207.29,197.5,204.5,198.17z M211.09,211.09     c-2.54,2.54-6.67,2.54-9.22,0c-1.34-1.34-1.97-3.11-1.9-4.87l3.38,3.38l5.12-1.17l1.17-5.12l-3.35-3.35     c1.73-0.05,3.47,0.59,4.79,1.91C213.64,204.42,213.64,208.55,211.09,211.09z"/><path class="st1" d="M229.18,221.8c2.04,2.04,2.04,5.35,0,7.39c-2.04,2.04-5.34,2.04-7.38,0c-1.5-1.5-1.9-3.7-1.18-5.56     l-9.78-9.78c0.6-0.36,1.17-0.79,1.69-1.31c0.52-0.52,0.96-1.09,1.31-1.69l9.78,9.78C225.49,219.9,227.68,220.3,229.18,221.8z"/></g><g><path class="st0" d="M181.18,245.52c-0.36,0.58-0.65,1.2-0.86,1.86h7.11l1.62,2.59l-1.62,2.59h-7.13     c0.21,0.66,0.49,1.28,0.84,1.86c1.5,2.47,4.21,4.13,7.32,4.13c3.99,0,7.34-2.73,8.28-6.42c0.17-0.68,0.27-1.39,0.27-2.12     s-0.09-1.45-0.27-2.13c-0.94-3.69-4.29-6.42-8.28-6.42C185.38,241.45,182.68,243.08,181.18,245.52z M194.97,250     c0,3.6-2.92,6.52-6.52,6.52c-1.89,0-3.6-0.81-4.79-2.1h4.79l2.8-4.45l-2.8-4.45h-4.73c1.19-1.26,2.87-2.04,4.73-2.04     C192.06,243.48,194.97,246.4,194.97,250z"/><path class="st1" d="M215.34,244.78c2.88,0,5.22,2.34,5.22,5.22c0,2.88-2.34,5.22-5.22,5.22c-2.13,0-3.96-1.27-4.77-3.1h-13.83     c0.17-0.68,0.27-1.39,0.27-2.12c0-0.73-0.09-1.45-0.27-2.13h13.83C211.39,246.05,213.22,244.78,215.34,244.78z"/></g><g><path class="st0" d="M198.17,295.5c0.16,0.66,0.39,1.31,0.71,1.92l5.03-5.03l2.98,0.68l0.68,2.98l-5.04,5.04     c0.61,0.32,1.25,0.56,1.91,0.72c2.81,0.69,5.9-0.06,8.09-2.26c2.82-2.82,3.26-7.12,1.31-10.4c-0.36-0.6-0.8-1.17-1.31-1.69     c-0.52-0.52-1.09-0.96-1.69-1.31c-3.28-1.94-7.58-1.51-10.4,1.31C198.26,289.65,197.5,292.71,198.17,295.5z M211.09,288.91     c2.54,2.54,2.54,6.67,0,9.22c-1.34,1.34-3.11,1.97-4.87,1.9l3.38-3.38l-1.17-5.12l-5.12-1.17l-3.35,3.35     c-0.05-1.73,0.59-3.47,1.91-4.79C204.42,286.36,208.55,286.36,211.09,288.91z"/><path class="st1" d="M221.8,270.82c2.04-2.04,5.35-2.04,7.39,0c2.04,2.04,2.04,5.34,0,7.38c-1.5,1.5-3.7,1.9-5.56,1.18     l-9.78,9.78c-0.36-0.6-0.79-1.17-1.31-1.69c-0.52-0.52-1.09-0.96-1.69-1.31l9.78-9.78C219.9,274.51,220.3,272.32,221.8,270.82z"/></g><g><path class="st0" d="M245.52,318.82c0.58,0.36,1.2,0.65,1.86,0.86v-7.11l2.59-1.62l2.59,1.62v7.13c0.66-0.21,1.28-0.49,1.86-0.84     c2.47-1.5,4.13-4.21,4.13-7.32c0-3.99-2.73-7.34-6.42-8.28c-0.68-0.17-1.39-0.27-2.12-0.27c-0.73,0-1.45,0.09-2.13,0.27     c-3.69,0.94-6.42,4.29-6.42,8.28C241.45,314.62,243.08,317.32,245.52,318.82z M250,305.03c3.6,0,6.52,2.92,6.52,6.52     c0,1.89-0.81,3.6-2.1,4.79v-4.79l-4.45-2.8l-4.45,2.8v4.73c-1.26-1.19-2.04-2.87-2.04-4.73     C243.48,307.94,246.4,305.03,250,305.03z"/><path class="st1" d="M244.78,284.66c0-2.88,2.34-5.22,5.22-5.22c2.88,0,5.22,2.34,5.22,5.22c0,2.13-1.27,3.96-3.1,4.77v13.83     c-0.68-0.17-1.39-0.27-2.12-0.27c-0.73,0-1.45,0.09-2.13,0.27v-13.83C246.05,288.61,244.78,286.78,244.78,284.66z"/></g><g><path class="st0" d="M295.5,301.83c0.66-0.16,1.31-0.39,1.92-0.71l-5.03-5.03l0.68-2.98l2.98-0.68l5.04,5.04     c0.32-0.61,0.56-1.25,0.72-1.91c0.69-2.81-0.06-5.9-2.26-8.09c-2.82-2.82-7.12-3.26-10.4-1.31c-0.6,0.36-1.17,0.8-1.69,1.31     c-0.52,0.52-0.96,1.09-1.31,1.69c-1.94,3.28-1.51,7.58,1.31,10.4C289.65,301.74,292.71,302.5,295.5,301.83z M288.91,288.91     c2.54-2.54,6.67-2.54,9.22,0c1.34,1.34,1.97,3.11,1.9,4.87l-3.38-3.38l-5.12,1.17l-1.17,5.12l3.35,3.35     c-1.73,0.05-3.47-0.59-4.79-1.91C286.36,295.58,286.36,291.45,288.91,288.91z"/><path class="st1" d="M270.82,278.2c-2.04-2.04-2.04-5.35,0-7.39c2.04-2.04,5.34-2.04,7.38,0c1.5,1.5,1.9,3.7,1.18,5.56l9.78,9.78     c-0.6,0.36-1.17,0.79-1.69,1.31c-0.52,0.52-0.96,1.09-1.31,1.69l-9.78-9.78C274.51,280.1,272.32,279.7,270.82,278.2z"/></g><g><path class="st0" d="M318.82,254.48c0.36-0.58,0.65-1.2,0.86-1.86h-7.11l-1.62-2.59l1.62-2.59h7.13     c-0.21-0.66-0.49-1.28-0.84-1.86c-1.5-2.47-4.21-4.13-7.32-4.13c-3.99,0-7.34,2.73-8.28,6.42c-0.17,0.68-0.27,1.39-0.27,2.12     c0,0.73,0.09,1.45,0.27,2.13c0.94,3.69,4.29,6.42,8.28,6.42C314.62,258.55,317.32,256.92,318.82,254.48z M305.03,250     c0-3.6,2.92-6.52,6.52-6.52c1.89,0,3.6,0.81,4.79,2.1h-4.79l-2.8,4.45l2.8,4.45h4.73c-1.19,1.26-2.87,2.04-4.73,2.04     C307.94,256.52,305.03,253.6,305.03,250z"/><path class="st1" d="M284.66,255.22c-2.88,0-5.22-2.34-5.22-5.22c0-2.88,2.34-5.22,5.22-5.22c2.13,0,3.96,1.27,4.77,3.1h13.83     c-0.17,0.68-0.27,1.39-0.27,2.12c0,0.73,0.09,1.45,0.27,2.13h-13.83C288.61,253.95,286.78,255.22,284.66,255.22z"/></g><g><path class="st0" d="M301.83,204.5c-0.16-0.66-0.39-1.31-0.71-1.92l-5.03,5.03l-2.98-0.68l-0.68-2.98l5.04-5.04     c-0.61-0.32-1.25-0.56-1.91-0.72c-2.81-0.69-5.9,0.06-8.09,2.26c-2.82,2.82-3.26,7.12-1.31,10.4c0.36,0.6,0.8,1.17,1.31,1.69     c0.52,0.52,1.09,0.96,1.69,1.31c3.28,1.94,7.58,1.51,10.4-1.31C301.74,210.35,302.5,207.29,301.83,204.5z M288.91,211.09     c-2.54-2.54-2.54-6.67,0-9.22c1.34-1.34,3.11-1.97,4.87-1.9l-3.38,3.38l1.17,5.12l5.12,1.17l3.35-3.35     c0.05,1.73-0.59,3.47-1.91,4.79C295.58,213.64,291.45,213.64,288.91,211.09z"/><path class="st1" d="M278.2,229.18c-2.04,2.04-5.35,2.04-7.39,0c-2.04-2.04-2.04-5.34,0-7.38c1.5-1.5,3.7-1.9,5.56-1.18     l9.78-9.78c0.36,0.6,0.79,1.17,1.31,1.69c0.52,0.52,1.09,0.96,1.69,1.31l-9.78,9.78C280.1,225.49,279.7,227.68,278.2,229.18z"/></g><path class="st0" d="M256.59,250c0,0.42-0.04,0.83-0.11,1.23c-0.57,3.05-3.25,5.36-6.47,5.36c-3.22,0-5.9-2.31-6.47-5.36    c-0.07-0.4-0.11-0.81-0.11-1.23c0-0.42,0.04-0.83,0.11-1.23c0.57-3.05,3.25-5.36,6.47-5.36c3.22,0,5.9,2.31,6.47,5.36    C256.55,249.17,256.59,249.58,256.59,250z"/><circle class="st0" cx="263.31" cy="264.11" r="6.59"/><circle class="st0" cx="261.43" cy="240.08" r="3.33"/><circle class="st0" cx="246.74" cy="260.85" r="3.33"/><ellipse class="st0" cx="243.41" cy="234.07" rx="4.7" ry="4.7" transform="matrix(0.2298 -0.9732 0.9732 0.2298 -40.3196 417.1945)"/><path class="st0" d="M243.41,250c0,0.42,0.04,0.83,0.11,1.23h-7c-0.54,2-2.37,3.47-4.54,3.47c-2.6,0-4.7-2.11-4.7-4.7    c0-2.6,2.11-4.7,4.7-4.7c2.17,0,4,1.47,4.54,3.48h7C243.45,249.17,243.41,249.58,243.41,250z"/><path class="st0" d="M272.71,250c0,2.6-2.11,4.7-4.7,4.7c-2.17,0-4-1.47-4.54-3.47h-7c0.07-0.4,0.11-0.81,0.11-1.23    c0-0.42-0.04-0.83-0.11-1.23h7c0.54-2,2.37-3.48,4.54-3.48C270.61,245.3,272.71,247.4,272.71,250z"/></g><g><g><path class="st2" d="M181.7,296.26v0.89c-0.21-0.29-0.41-0.59-0.61-0.89H181.7z"/><path class="st2" d="M181.7,296.26v0.89c-0.21-0.29-0.41-0.59-0.61-0.89H181.7z"/><g><path class="st0" d="M100.3,222.16h61.23c-1.04,3.36-1.89,6.8-2.53,10.31h-58.7V222.16z"/></g><g><rect class="st0" height="10.31" width="39.09" x="103.81" y="199.11"/></g><g><path class="st0" d="M151.87,199.11h20.45c-2.14,3.3-4.09,6.74-5.8,10.31h-14.65V199.11z"/></g><g><rect class="st0" height="10.31" width="10.22" x="159.17" y="174.69"/></g><g><rect class="st0" height="10.31" width="10.22" x="82.21" y="222.16"/></g><g><rect class="st0" height="10.31" width="10.22" x="46.41" y="244.84"/></g><g><rect class="st0" height="10.31" width="10.22" x="82.21" y="296.26"/></g><g><rect class="st0" height="10.31" width="26.41" x="63.83" y="244.84"/></g><g><path class="st0" d="M160.08,271.38c0.86,3.52,1.93,6.96,3.18,10.31H92.43v-10.31H160.08z"/></g><g><path class="st0" d="M170.21,296.26c2.12,3.6,4.48,7.04,7.05,10.31H99.59v-10.31H170.21z"/><path class="st0" d="M181.7,296.26v0.89c-0.21-0.29-0.41-0.59-0.61-0.89H181.7z"/></g><g><path class="st0" d="M189.87,319.7c4.54,3.89,9.46,7.35,14.7,10.31h-40.16V319.7H189.87z"/></g><g><path class="st0" d="M157.44,249.39c0,1.94,0.06,3.86,0.18,5.77H96.47v-10.31h61.08C157.48,246.35,157.44,247.86,157.44,249.39z      "/></g><g><rect class="st0" height="10.31" width="15.61" x="68.11" y="271.38"/></g><g><rect class="st0" height="10.31" width="22.27" x="134.55" y="321.15"/></g></g><g><path class="st2" d="M296.26,318.3h0.89c-0.29,0.21-0.59,0.41-0.89,0.61V318.3z"/><path class="st2" d="M296.26,318.3h0.89c-0.29,0.21-0.59,0.41-0.89,0.61V318.3z"/><g><path class="st0" d="M222.16,399.7v-61.23c3.36,1.04,6.8,1.89,10.31,2.53v58.7H222.16z"/></g><g><rect class="st0" height="39.09" width="10.31" x="199.11" y="357.1"/></g><g><path class="st0" d="M199.11,348.13v-20.45c3.3,2.14,6.74,4.09,10.31,5.8v14.65H199.11z"/></g><g><rect class="st0" height="10.22" width="10.31" x="174.69" y="330.61"/></g><g><rect class="st0" height="10.22" width="10.31" x="222.16" y="407.57"/></g><g><rect class="st0" height="10.22" width="10.31" x="244.84" y="443.38"/></g><g><rect class="st0" height="10.22" width="10.31" x="296.26" y="407.57"/></g><g><rect class="st0" height="26.41" width="10.31" x="244.84" y="409.76"/></g><g><path class="st0" d="M271.38,339.92c3.52-0.86,6.96-1.93,10.31-3.18v70.82h-10.31V339.92z"/></g><g><path class="st0" d="M296.26,329.79c3.6-2.12,7.04-4.48,10.31-7.05v77.67h-10.31V329.79z"/><path class="st0" d="M296.26,318.3h0.89c-0.29,0.21-0.59,0.41-0.89,0.61V318.3z"/></g><g><path class="st0" d="M319.7,310.13c3.89-4.54,7.35-9.46,10.31-14.7v40.16H319.7V310.13z"/></g><g><path class="st0" d="M249.39,342.56c1.94,0,3.86-0.06,5.77-0.18v61.15h-10.31v-61.08C246.35,342.52,247.86,342.56,249.39,342.56      z"/></g><g><rect class="st0" height="15.61" width="10.31" x="271.38" y="416.29"/></g><g><rect class="st0" height="22.27" width="10.31" x="321.15" y="343.17"/></g></g><g><path class="st2" d="M318.3,203.74v-0.89c0.21,0.29,0.41,0.59,0.61,0.89H318.3z"/><path class="st2" d="M318.3,203.74v-0.89c0.21,0.29,0.41,0.59,0.61,0.89H318.3z"/><g><path class="st0" d="M399.7,277.84h-61.23c1.04-3.36,1.89-6.8,2.53-10.31h58.7V277.84z"/></g><g><rect class="st0" height="10.31" width="39.09" x="357.1" y="290.58"/></g><g><path class="st0" d="M348.13,300.89h-20.45c2.14-3.3,4.09-6.74,5.8-10.31h14.65V300.89z"/></g><g><rect class="st0" height="10.31" width="10.22" x="330.61" y="315"/></g><g><rect class="st0" height="10.31" width="10.22" x="407.57" y="267.53"/></g><g><rect class="st0" height="10.31" width="10.22" x="443.38" y="244.84"/></g><g><rect class="st0" height="10.31" width="10.22" x="407.57" y="193.43"/></g><g><rect class="st0" height="10.31" width="26.41" x="409.76" y="244.84"/></g><g><path class="st0" d="M339.92,228.62c-0.86-3.52-1.93-6.96-3.18-10.31h70.82v10.31H339.92z"/></g><g><path class="st0" d="M329.79,203.74c-2.12-3.6-4.48-7.04-7.05-10.31h77.67v10.31H329.79z"/><path class="st0" d="M318.3,203.74v-0.89c0.21,0.29,0.41,0.59,0.61,0.89H318.3z"/></g><g><path class="st0" d="M310.13,180.3c-4.54-3.89-9.46-7.35-14.7-10.31h40.16v10.31H310.13z"/></g><g><path class="st0" d="M342.56,250.61c0-1.94-0.06-3.86-0.18-5.77h61.15v10.31h-61.08C342.52,253.65,342.56,252.14,342.56,250.61z      "/></g><g><rect class="st0" height="10.31" width="15.61" x="416.29" y="218.31"/></g><g><rect class="st0" height="10.31" width="22.27" x="343.17" y="168.54"/></g></g><g><path class="st2" d="M203.74,181.7h-0.89c0.29-0.21,0.59-0.41,0.89-0.61V181.7z"/><path class="st2" d="M203.74,181.7h-0.89c0.29-0.21,0.59-0.41,0.89-0.61V181.7z"/><g><path class="st0" d="M277.84,100.3v61.23c-3.36-1.04-6.8-1.89-10.31-2.53v-58.7H277.84z"/></g><g><rect class="st0" height="39.09" width="10.31" x="290.58" y="103.81"/></g><g><path class="st0" d="M300.89,151.87v20.45c-3.3-2.14-6.74-4.09-10.31-5.8v-14.65H300.89z"/></g><g><rect class="st0" height="10.22" width="10.31" x="315" y="159.17"/></g><g><rect class="st0" height="10.22" width="10.31" x="267.53" y="82.21"/></g><g><rect class="st0" height="10.22" width="10.31" x="244.84" y="46.41"/></g><g><rect class="st0" height="10.22" width="10.31" x="193.43" y="82.21"/></g><g><rect class="st0" height="26.41" width="10.31" x="244.84" y="63.83"/></g><g><path class="st0" d="M228.62,160.08c-3.52,0.86-6.96,1.93-10.31,3.18V92.43h10.31V160.08z"/></g><g><path class="st0" d="M203.74,170.21c-3.6,2.12-7.04,4.48-10.31,7.05V99.59h10.31V170.21z"/><path class="st0" d="M203.74,181.7h-0.89c0.29-0.21,0.59-0.41,0.89-0.61V181.7z"/></g><g><path class="st0" d="M180.3,189.87c-3.89,4.54-7.35,9.46-10.31,14.7v-40.16h10.31V189.87z"/></g><g><path class="st0" d="M250.61,157.44c-1.94,0-3.86,0.06-5.77,0.18V96.47h10.31v61.08C253.65,157.48,252.14,157.44,250.61,157.44z      "/></g><g><rect class="st0" height="15.61" width="10.31" x="218.31" y="68.11"/></g><g><rect class="st0" height="22.27" width="10.31" x="168.54" y="134.55"/></g></g><g><path class="st3" d="M175.3,174.69h20.11c-4.23,3.1-8.19,6.55-11.84,10.31h-8.26V174.69z"/><path class="st4" d="M333.34,249.39c0,46.02-37.31,83.34-83.34,83.34c-7.31,0-14.4-0.94-21.16-2.71     c-8.47-2.21-16.4-5.73-23.6-10.31c-9.25-5.9-17.26-13.58-23.54-22.55v-0.89h-0.61c-3.1-4.55-5.77-9.43-7.93-14.57     c-1.41-3.33-2.6-6.78-3.56-10.31c-1.43-5.22-2.36-10.65-2.74-16.23c-0.14-1.9-0.2-3.83-0.2-5.77c0-1.52,0.04-3.04,0.12-4.54     c0.22-4.22,0.77-8.35,1.6-12.37c0.72-3.52,1.67-6.97,2.83-10.31c1.52-4.43,3.42-8.69,5.64-12.74c1.98-3.61,4.21-7.05,6.68-10.31     c3.95-5.22,8.5-9.96,13.56-14.11c4.87-4.01,10.21-7.48,15.92-10.31c11.15-5.52,23.7-8.63,36.98-8.63     C296.03,166.05,333.34,203.36,333.34,249.39z"/></g></g></g></svg>